<svg width="100" height="35" viewBox="0 0 100 35" fill="none" xmlns="http://www.w3.org/2000/svg">
<rect width="100" height="35" fill="white"/>
<path d="M27.456 15.0866H22.1293C22.0582 14.5398 21.9126 14.0462 21.6925 13.6058C21.4723 13.1655 21.1811 12.7891 20.8189 12.4766C20.4567 12.1641 20.027 11.9261 19.5298 11.7628C19.0398 11.5923 18.4964 11.5071 17.8999 11.5071C16.8416 11.5071 15.929 11.7663 15.1619 12.2848C14.402 12.8033 13.8161 13.5526 13.4041 14.5327C12.9993 15.5128 12.7969 16.6989 12.7969 18.0909C12.7969 19.5398 13.0028 20.7543 13.4148 21.7344C13.8338 22.7074 14.4197 23.4425 15.1726 23.9396C15.9325 24.4297 16.831 24.6747 17.8679 24.6747C18.4503 24.6747 18.9794 24.6001 19.4553 24.451C19.9382 24.3018 20.3608 24.0852 20.723 23.8011C21.0923 23.5099 21.3942 23.1584 21.6286 22.7464C21.87 22.3274 22.0369 21.8551 22.1293 21.3295L27.456 21.3615C27.3636 22.3274 27.0831 23.2791 26.6143 24.2166C26.1527 25.1541 25.517 26.0099 24.7074 26.7841C23.8977 27.5511 22.9105 28.1619 21.7457 28.6165C20.5881 29.071 19.2599 29.2983 17.7614 29.2983C15.7869 29.2983 14.0185 28.8651 12.456 27.9986C10.9006 27.125 9.67188 25.8537 8.76989 24.1847C7.8679 22.5156 7.4169 20.4844 7.4169 18.0909C7.4169 15.6903 7.875 13.6555 8.79119 11.9865C9.70739 10.3175 10.9467 9.04972 12.5092 8.18324C14.0717 7.31676 15.8224 6.88352 17.7614 6.88352C19.0824 6.88352 20.304 7.06818 21.4261 7.4375C22.5483 7.79972 23.5355 8.33239 24.3878 9.03551C25.2401 9.73153 25.9325 10.5874 26.4652 11.603C26.9979 12.6186 27.3281 13.7798 27.456 15.0866ZM54.1454 29V7.18182H59.4189V24.7173H68.4956V29H54.1454ZM71.2255 29V7.18182H86.4386V11.4645H76.4989V15.9389H85.6609V20.2322H76.4989V24.7173H86.4386V29H71.2255Z" fill="black"/>
<path d="M51.0666 18.0909C51.0666 20.4915 50.6049 22.5263 49.6816 24.1953C48.7583 25.8643 47.5083 27.1321 45.9316 27.9986C44.362 28.8651 42.6007 29.2983 40.6476 29.2983C38.6873 29.2983 36.9224 28.8615 35.3528 27.9879C33.7832 27.1143 32.5368 25.8466 31.6135 24.1847C30.6973 22.5156 30.2392 20.4844 30.2392 18.0909C30.2392 15.6903 30.6973 13.6555 31.6135 11.9865C32.5368 10.3175 33.7832 9.04972 35.3528 8.18324C36.9224 7.31676 38.6873 6.88352 40.6476 6.88352C42.6007 6.88352 44.362 7.31676 45.9316 8.18324C47.5083 9.04972 48.7583 10.3175 49.6816 11.9865C50.6049 13.6555 51.0666 15.6903 51.0666 18.0909ZM45.676 18.0909C45.676 16.6705 45.4735 15.4702 45.0687 14.4901C44.671 13.5099 44.0957 12.7678 43.3429 12.2635C42.5971 11.7592 41.6987 11.5071 40.6476 11.5071C39.6035 11.5071 38.7051 11.7592 37.9522 12.2635C37.1994 12.7678 36.6206 13.5099 36.2157 14.4901C35.818 15.4702 35.6191 16.6705 35.6191 18.0909C35.6191 19.5114 35.818 20.7116 36.2157 21.6918C36.6206 22.6719 37.1994 23.4141 37.9522 23.9183C38.7051 24.4226 39.6035 24.6747 40.6476 24.6747C41.6987 24.6747 42.5971 24.4226 43.3429 23.9183C44.0957 23.4141 44.671 22.6719 45.0687 21.6918C45.4735 20.7116 45.676 19.5114 45.676 18.0909Z" fill="#5C3A3A"/>
</svg>
